<svg xmlns="http://www.w3.org/2000/svg" xmlns:xlink="http://www.w3.org/1999/xlink" width="254.663" height="85.061" viewBox="0 0 254.663 85.061"><defs><style>.a{fill:none;}.b{clip-path:url(#a);}.c{fill:#162447;}.d{fill:#00adee;}</style><clipPath id="a"><rect class="a" width="254.663" height="85.061"/></clipPath></defs><g class="b"><path class="c" d="M51.986,36.581a32.572,32.572,0,0,1-2.151,11.94A28.317,28.317,0,0,1,43.9,57.865a25.916,25.916,0,0,1-9.122,6.081A29.743,29.743,0,0,1,23.212,66.1a33.675,33.675,0,0,1-6.081-.519l-4,16.167H0l14.832-61.7a78.447,78.447,0,0,1,8.158-1.928,52.344,52.344,0,0,1,9.937-.816,22.911,22.911,0,0,1,8.6,1.483,16.448,16.448,0,0,1,5.933,4.153,16.675,16.675,0,0,1,3.411,6.155A24.387,24.387,0,0,1,51.986,36.581ZM19.652,54.9a19.22,19.22,0,0,0,3.782.371,15.677,15.677,0,0,0,6.3-1.261,14.091,14.091,0,0,0,4.895-3.634,16.914,16.914,0,0,0,3.115-5.562,22.178,22.178,0,0,0,1.112-7.193,12.211,12.211,0,0,0-1.706-6.526c-1.112-1.78-3.115-2.67-5.859-2.67a24.16,24.16,0,0,0-5.339.519Z" transform="translate(0 -4.47)"/><path class="c" d="M104.793,29.685c-1.187-.3-2.373-.593-3.56-.816a23.208,23.208,0,0,0-5.117-.371,18.586,18.586,0,0,0-2.744.222,14.859,14.859,0,0,0-2.521.519l-8.6,35.967H68.9L79.653,20.785c2.521-.816,5.414-1.631,8.6-2.373A47.446,47.446,0,0,1,99.009,17.3a42.49,42.49,0,0,1,4.969.371,20.067,20.067,0,0,1,4.746,1.261Z" transform="translate(-17.804 -4.47)"/><path class="c" d="M187.427,20.389c1.038-.3,2.151-.667,3.337-1.038a40.647,40.647,0,0,1,4.079-1.038c1.483-.3,3.189-.593,5.117-.816a55.005,55.005,0,0,1,6.378-.3c6.971,0,11.791,2,14.387,6.081,2.67,4.079,3.115,9.567,1.409,16.612l-6.081,25.362H202.778l5.859-24.843a34.254,34.254,0,0,0,.816-4.524,9.477,9.477,0,0,0-.074-3.856,4.557,4.557,0,0,0-1.632-2.67,6.38,6.38,0,0,0-3.93-1.038,25.857,25.857,0,0,0-5.265.519l-8.677,36.338H176.6Z" transform="translate(-45.635 -4.445)"/><path class="c" d="M250.734,2.151,264.6,0l-3.411,13.794h14.832l-2.67,10.9H258.6l-3.93,16.389a15.273,15.273,0,0,0-.593,3.856,6.91,6.91,0,0,0,.445,3.115,3.636,3.636,0,0,0,1.928,2,9.381,9.381,0,0,0,4,.742,25.434,25.434,0,0,0,4.153-.371c1.335-.3,2.67-.667,4.079-1.112l.964,10.16a53.6,53.6,0,0,1-5.784,1.706,35.229,35.229,0,0,1-7.416.742c-4.079,0-7.268-.593-9.567-1.854a10.757,10.757,0,0,1-4.82-4.969,16.126,16.126,0,0,1-1.261-7.268,47.116,47.116,0,0,1,1.261-8.677Z" transform="translate(-62.221)"/><path class="c" d="M301.414,66.39a21.5,21.5,0,0,1-8.232-1.409,16.176,16.176,0,0,1-5.784-4,17.465,17.465,0,0,1-3.411-6.081,25.971,25.971,0,0,1-1.187-7.787,35.687,35.687,0,0,1,1.706-10.679,32.512,32.512,0,0,1,5.117-9.641,27.293,27.293,0,0,1,8.306-7.045A23.264,23.264,0,0,1,309.2,17a21.373,21.373,0,0,1,8.158,1.409,14.974,14.974,0,0,1,5.784,4,17.466,17.466,0,0,1,3.411,6.081,23.821,23.821,0,0,1,1.187,7.787,35.688,35.688,0,0,1-1.706,10.679,32.142,32.142,0,0,1-4.969,9.641,26.778,26.778,0,0,1-8.232,6.971A22.121,22.121,0,0,1,301.414,66.39Zm6.6-38.192a8.547,8.547,0,0,0-5.191,1.706,15.2,15.2,0,0,0-3.782,4.3,20.949,20.949,0,0,0-2.3,5.636A23.928,23.928,0,0,0,296,45.7a14.17,14.17,0,0,0,1.409,6.971c.964,1.706,2.67,2.521,5.191,2.521a8.547,8.547,0,0,0,5.191-1.706,13.116,13.116,0,0,0,3.708-4.3,20.944,20.944,0,0,0,2.3-5.636,23.927,23.927,0,0,0,.742-5.859,14.17,14.17,0,0,0-1.409-6.971C312.241,29.088,310.461,28.2,308.014,28.2Z" transform="translate(-73.078 -4.393)"/><g transform="translate(85.654 12.607)"><path class="c" d="M126.4,34.057c7.49-4.524,14.387-7.268,21.061-9.937q3.671-1.446,7.119-2.892a15.952,15.952,0,0,0-4.6-2.818A21.373,21.373,0,0,0,141.827,17a22.661,22.661,0,0,0-11.272,2.744,28.2,28.2,0,0,0-8.306,7.045,31.63,31.63,0,0,0-5.117,9.641,32.993,32.993,0,0,0-1.631,7.861A40.933,40.933,0,0,1,126.4,34.057Z" transform="translate(-115.5 -17)"/><path class="c" d="M154.914,55.378c-7.193,4.6-15.129,7.861-22.174,10.753-3.634,1.483-6.971,2.892-9.641,4.227a16.539,16.539,0,0,0,4.672,2.892A21.249,21.249,0,0,0,136,74.659,23.125,23.125,0,0,0,147.5,71.915a25.163,25.163,0,0,0,8.232-6.971A30.53,30.53,0,0,0,160.7,55.3a38.489,38.489,0,0,0,1.409-6.3A36.667,36.667,0,0,1,154.914,55.378Z" transform="translate(-117.464 -25.269)"/></g><g transform="translate(79.202 15.203)"><path class="d" d="M106.8,66.553c1.335-1.038,2.892-2.373,4.746-3.856,3.263-2.744,8.9-5.043,15.425-7.713,6.9-2.818,14.684-6.007,21.506-10.456,8.528-5.488,13.645-16.982,16.093-24.028-5.636,3.634-11.569,5.933-17.8,8.38-6.526,2.6-13.274,5.265-20.468,9.641C115.7,45.047,109.544,58.618,106.8,66.553Z" transform="translate(-106.8 -20.5)"/><g transform="translate(12.31 51.244)"><path class="d" d="M136.007,105.482V99.03A1.429,1.429,0,0,0,134.45,97.4a2.684,2.684,0,0,0-2.076,1.187v6.9H129.7V99.03a1.429,1.429,0,0,0-1.557-1.632,2.684,2.684,0,0,0-2.076,1.187v6.9H123.4V95.322h2.67v1.335a4.576,4.576,0,0,1,3.337-1.557,2.66,2.66,0,0,1,2.818,1.854A4.4,4.4,0,0,1,135.71,95.1c1.854,0,2.966.964,2.966,3.115v7.342h-2.67Z" transform="translate(-123.4 -91.021)"/><path class="d" d="M163.623,105.456v-1.112a4.284,4.284,0,0,1-3.263,1.335,3.421,3.421,0,0,1-3.56-3.411c0-2.373,1.928-3.263,3.56-3.263a4.242,4.242,0,0,1,3.263,1.261V99c0-1.038-.89-1.706-2.225-1.706a4.556,4.556,0,0,0-2.966,1.187l-1.038-1.854A6.608,6.608,0,0,1,161.843,95c2.373,0,4.45.964,4.45,3.856v6.6Zm0-2.447v-1.261a2.641,2.641,0,0,0-2.151-.89,1.593,1.593,0,1,0,0,3.115A3.074,3.074,0,0,0,163.623,103.009Z" transform="translate(-132.031 -90.995)"/><path class="d" d="M183.3,105.482V95.322h2.67v1.409a4.507,4.507,0,0,1,3.263-1.631v2.6a2.286,2.286,0,0,0-.742-.074,3.408,3.408,0,0,0-2.521,1.187v6.748H183.3Z" transform="translate(-138.879 -91.021)"/><path class="d" d="M210.3,104.19l-2.67-3.93-1.261,1.335v2.6H203.7V90.1h2.67v8.454l3.856-4.524h3.263l-4,4.6,4.153,5.562Z" transform="translate(-144.15 -89.729)"/><path class="d" d="M227.9,100.339A5.209,5.209,0,0,1,233.165,95c3.041,0,5.117,2.3,5.117,5.562v.667h-7.564a2.758,2.758,0,0,0,2.966,2.3,4.2,4.2,0,0,0,2.67-.964l1.187,1.78a6.2,6.2,0,0,1-4.227,1.409A5.177,5.177,0,0,1,227.9,100.339Zm5.339-3.115a2.456,2.456,0,0,0-2.521,2.151h5.043A2.3,2.3,0,0,0,233.239,97.225Z" transform="translate(-150.403 -90.995)"/><path class="d" d="M254.806,102.031V96.691H253.1V94.318h1.706V91.5h2.67v2.818h2.076v2.373h-2.076v4.6a.98.98,0,0,0,.964,1.112,1.651,1.651,0,0,0,.964-.3l.593,2.076a3.159,3.159,0,0,1-2.225.667C255.844,104.849,254.806,103.885,254.806,102.031Z" transform="translate(-156.915 -90.091)"/><path class="d" d="M274.1,91.157a1.566,1.566,0,0,1,1.557-1.557,1.584,1.584,0,0,1,1.632,1.557,1.595,1.595,0,1,1-3.189,0Zm.222,12.9V93.9h2.67v10.234h-2.67Z" transform="translate(-162.342 -89.6)"/><path class="d" d="M298.623,105.482V99.327c0-1.409-.742-1.928-1.854-1.928a2.928,2.928,0,0,0-2.3,1.187v6.9H291.8V95.322h2.67v1.335a4.866,4.866,0,0,1,3.56-1.557,2.99,2.99,0,0,1,3.337,3.263v7.193h-2.744Z" transform="translate(-166.916 -91.021)"/><path class="d" d="M317.919,108.152l1.187-1.928a4.139,4.139,0,0,0,3.189,1.261c1.261,0,2.818-.519,2.818-2.6v-.964a3.932,3.932,0,0,1-3.189,1.557c-2.521,0-4.524-1.78-4.524-5.191,0-3.337,1.928-5.191,4.524-5.191a3.932,3.932,0,0,1,3.189,1.557V95.322h2.67v9.492c0,3.856-2.966,4.82-5.488,4.82A6.17,6.17,0,0,1,317.919,108.152Zm7.193-6.229V98.586a2.882,2.882,0,0,0-2.3-1.112,2.828,2.828,0,0,0,0,5.636A3.471,3.471,0,0,0,325.112,101.923Z" transform="translate(-173.531 -91.021)"/></g></g></g></svg>